<?xml version="1.0" encoding="utf-8"?>
<!-- Generator: Adobe Illustrator 23.0.6, SVG Export Plug-In . SVG Version: 6.00 Build 0)  -->
<svg version="1.1" id="Layer_1" xmlns="http://www.w3.org/2000/svg" xmlns:xlink="http://www.w3.org/1999/xlink" x="0px" y="0px"
	 viewBox="0 0 325 140" style="enable-background:new 0 0 325 140;" xml:space="preserve">
<style type="text/css">
	.st0{fill:#5F6162;}
	.st1{fill:#1BB9D6;}
	.st2{fill:#A1A1A1;}
</style>
<g>
	<path class="st0" d="M163.2,94.8L163.2,94.8h-13.4v-5.3h8.4c1.2,0,2.1-0.9,2.1-2.1v-4.2h-10.5v-5.1h13c0.1,0,0.3,0,0.4,0
		c1.1-0.1,1.9-1,1.9-2.1v-4.2h-22.3v29.4h22.5v-4.2C165.3,95.8,164.3,94.8,163.2,94.8z"/>
	<path class="st0" d="M188.8,73.8c0,0-0.6-1.5-2.5-1.5H185l0,0h-3.1l-0.1,0.2l-12.2,28.7h4.9c2.3,0,3.1-2,3.1-2l1.8-4.3l2.5-6.1
		l3.2-7.8l3.2,7.8l2.5,6.1l1.8,4.3c0,0,0.9,2,3.2,2h4.9L188.8,73.8z"/>
	<g>
		<path class="st0" d="M295.9,72.6h-1.2v-0.8h3.4v0.8h-1.2v3.3H296L295.9,72.6L295.9,72.6z"/>
		<path class="st0" d="M298.7,71.8h1l1.1,1.7l1.1-1.7h1v4.1H302v-2.7l-1.1,1.7l0,0l-1.1-1.7v2.6h-0.9v-4H298.7z"/>
	</g>
	<path class="st1" d="M79.8,69.9c0,9.8-7.9,17.8-17.6,17.8s-17.6-7.9-17.6-17.8c0-9.8,7.9-17.8,17.6-17.8S79.8,60.1,79.8,69.9z
		 M101.3,73.8L85,102.1c-1.2,2.1-4.2,3.8-6.6,3.8H45.9c-2.4,0-5.4-1.7-6.6-3.8L23.1,73.9c-1.2-2.1-1.2-5.5,0-7.7l16.2-28.3
		c1.2-2.1,4.2-3.8,6.6-3.8h32.5c2.4,0,5.4,1.7,6.6,3.8l16.3,28.3C102.5,68.2,102.5,71.6,101.3,73.8z M88.8,69.9
		c0-14.8-12-26.9-26.7-26.9S35.4,55,35.4,69.9c0,14.8,11.9,26.9,26.7,26.9C76.9,96.8,88.8,84.8,88.8,69.9z"/>
	<g>
		<path class="st2" d="M178,40.9L178,40.9h-0.1l0,0l0,0c-2.5,0-4.2,1.1-5.3,2.5l-0.3,0.4v-7.6h-1.8v21.2h1.8v-9.3
			c0-3.2,2.3-5.5,5.3-5.5c3.1,0,4.9,2.1,4.9,5.3v9.6h1.8v-9.8c0-1.9-0.6-3.6-1.7-4.8C181.5,41.6,179.9,40.9,178,40.9z"/>
		<polygon class="st2" points="245.9,41.4 240.1,54.9 240,55.2 234.1,41.4 232,41.4 239.2,57.6 240.7,57.6 248,41.4 		"/>
		<path class="st2" d="M211.1,53.6c-1.3,1.4-3,2.5-5.1,2.5c-3.5,0-6.4-3-6.4-6.7v-0.1c0-3.7,2.7-6.7,6.2-6.7c2.3,0,3.8,1.2,5.2,2.6
			l0.1,0.1v0.1l1.3-1.3l-0.1-0.1c-1.5-1.6-3.4-3-6.4-3h-0.2l0,0c-4.6,0.1-8.1,4-8.1,8.4v0.1c0,4.5,3.6,8.4,8.2,8.4l0,0l0,0
			c3,0,4.9-1.3,6.6-3.2l0.1-0.1v-0.1l-1.3-1.1L211.1,53.6L211.1,53.6L211.1,53.6z"/>
		<path class="st2" d="M214.3,49.4L214.3,49.4c0,4.6,3.5,8.5,8.3,8.5s8.3-3.9,8.3-8.5v-0.1c0-4.5-3.5-8.4-8.3-8.4
			S214.3,44.9,214.3,49.4z M222.6,42.7c3.6,0,6.4,3,6.4,6.7v0.1c0,3.7-2.6,6.6-6.3,6.6c-3.6,0-6.4-3-6.4-6.7v-0.1
			C216.3,45.6,218.9,42.7,222.6,42.7z"/>
		<path class="st2" d="M189.9,36.2H188v14.5l0,0v0.1c0.1,1.6,0.6,3,1.6,4.1c1.3,1.6,3.2,2.6,5.4,2.6h0.6v-1.9h-0.5l0,0h-0.2
			c-2.8,0-5.1-2.3-5.1-5.1v-7.6h5.8v-1.7h-5.8L189.9,36.2L189.9,36.2z"/>
		<path class="st2" d="M132,57.4h1.8v-7.7c0-3.8,3.1-6.9,6.9-6.9h0.2V41h-0.2c-4.8,0-8.7,3.9-8.7,8.7V57.4z"/>
		<rect x="144.4" y="41.4" class="st2" width="1.8" height="16.2"/>
		<path class="st2" d="M120.5,40.9c-2.5,0-4.6,1-6.1,2.7l-0.3,0.3v-7.7h-2v13.2c0,4.5,3.5,8.4,8.3,8.4s8.3-3.9,8.3-8.5v-0.1
			C128.8,44.9,125.3,40.9,120.5,40.9z M126.8,49.4c0,3.7-2.6,6.6-6.3,6.6c-3.6,0-6.4-3-6.4-6.7v-0.1c0-3.7,2.6-6.7,6.3-6.7
			C124,42.7,126.8,45.6,126.8,49.4L126.8,49.4z"/>
		<path class="st2" d="M149.6,49.4L149.6,49.4c0,4.6,3.5,8.5,8.3,8.5c2.6,0,4.8-1.1,6.3-2.9l0.2-0.3v1.8c0,3.8-3.1,6.9-6.9,6.9h-0.2
			v1.8h0.2c4.8,0,8.7-3.9,8.7-8.7v-7.2c0-4.5-3.5-8.4-8.3-8.4C153.2,40.9,149.7,44.9,149.6,49.4z M157.9,42.7c3.6,0,6.4,3,6.4,6.7
			v0.1c0,3.7-2.6,6.6-6.3,6.6c-3.6,0-6.4-3-6.4-6.7v-0.1C151.6,45.6,154.2,42.7,157.9,42.7z"/>
		<path class="st2" d="M263.6,49.4c0-4.7-2.9-8.4-7.4-8.4c-4.4,0-7.7,3.7-7.7,8.4v0.1c0,5,3.7,8.4,7.9,8.4l0,0l0,0
			c3.1,0,5-1.3,6.7-3l0.1-0.1l0.1-0.1l-1.3-1.1l-0.1,0.1c-1.3,1.4-2.9,2.4-5.3,2.4c-2.9,0-5.6-2.1-6-5.8v-0.1h13.1V50
			c0-0.2,0-0.3,0-0.4v-0.3H263.6z M250.5,48.5v-0.2c0.4-3.3,2.7-5.6,5.6-5.7l0,0l0,0l0,0c3.4,0,5.2,2.7,5.5,5.7v0.2H250.5z"/>
	</g>
	<path class="st0" d="M225.7,94.3L225.7,94.3c-1.1-1.3-2.6-0.7-3.3-0.3c-0.1,0.1-0.4,0.3-0.4,0.3l0,0c-1.5,0.9-3.1,1.3-5.4,1.3
		c-4.3,0-7.8-3.5-8.4-8c0-0.4-0.1-0.9-0.1-1.3c0-0.4,0-0.9,0.1-1.3c0.5-4.5,4.1-8,8.4-8c2.2,0,3.9,0.5,5.4,1.3l0,0c0,0,0,0,0.1,0.1
		c0.1,0.1,0.3,0.2,0.4,0.2c0.7,0.4,2.2,0.9,3.3-0.3l2.7-3.3c-2.8-2.4-5.7-3.8-10.2-4c-0.4,0-0.9,0-1.4,0l0,0l0,0c-0.2,0-0.3,0-0.5,0
		c-8.9,0.2-15,6.6-15,15.1v0.1v0.1c0,8.6,6.1,14.9,15,15.1c0.2,0,0.3,0,0.5,0l0,0l0,0c0.5,0,1,0,1.4-0.1c3.4-0.2,5.8-1,8-2.5
		c0.1,0,0.2-0.2,0.2-0.2c0.6-0.4,1.2-0.9,1.8-1.4L225.7,94.3z"/>
	<g>
		<g>
			<g>
				<path class="st0" d="M290,72.1h-2.8h-2.1v2.1v15l-12.4-16.3V73c-0.4-0.5-1-0.9-1.7-0.9h-4.9v27.1c0,1.2,0.9,2.1,2.1,2.1h4.9
					V83.6l12.5,17l0,0c0.4,0.4,0.9,0.7,1.6,0.7h1h1.8h2.1v-2.1v-25v-2.1H290z"/>
			</g>
		</g>
	</g>
	<path class="st0" d="M246.3,71.8c-8.7,0-15.4,6.6-15.4,15.1s6.6,14.9,15.4,14.9c8.7,0,15.4-6.6,15.4-15.1S255.1,71.8,246.3,71.8z
		 M246.3,78.2c4.7,0,8.2,3.7,8.2,8.6c0,4.8-3.5,8.5-8.1,8.5c-4.7,0-8.2-3.7-8.2-8.6C238.1,81.8,241.6,78.2,246.3,78.2z"/>
	<g>
		<path class="st0" d="M112.8,71.6h13.7c3.4,0,6,0.9,7.7,2.6c1.4,1.4,2,3,2,5v0.1c0,3.3-1.8,5.2-3.9,6.4c3.4,1.3,5.5,3.3,5.5,7.3
			v0.1c0,5.4-4.4,8.1-11.1,8.1h-14.1V71.6H112.8z M129.8,80.4c0-1.9-1.5-3-4.3-3h-6.4v6.2h6C128,83.6,129.8,82.8,129.8,80.4
			L129.8,80.4z M126.7,89.1h-7.5v6.5h7.7c2.9,0,4.6-1,4.6-3.2v-0.1C131.5,90.2,130,89.1,126.7,89.1z"/>
	</g>
</g>
</svg>
