<?xml version="1.0" encoding="utf-8"?>
<!-- Generator: Adobe Illustrator 24.0.1, SVG Export Plug-In . SVG Version: 6.00 Build 0)  -->
<svg version="1.1" id="Layer_1" xmlns="http://www.w3.org/2000/svg" xmlns:xlink="http://www.w3.org/1999/xlink" x="0px" y="0px"
	 viewBox="0 0 349.32 92.03" style="enable-background:new 0 0 349.32 92.03;" xml:space="preserve">
<style type="text/css">
	.st0{fill:#FFFFFF;}
	.st1{fill:#C141D9;}
	.st2{fill:#DDDDDD;}
	.st3{fill:#5F6162;}
	.st4{fill:#A0A0A0;}
	.st5{fill:#5F6263;}
</style>
<g>
	<path class="st3" d="M325.24,47.9h-2.77h-2.09v2.09v14.96l-12.33-16.22v0.06c-0.38-0.52-0.97-0.89-1.67-0.89h-4.86v26.98
		c0,1.15,0.94,2.09,2.09,2.09h4.86V59.31l12.44,16.96l0-0.03c0.38,0.44,0.93,0.73,1.56,0.73h0.99h1.78h2.09v-2.09V49.98V47.9H325.24
		z"/>
	<path class="st3" d="M125.54,70.38L125.54,70.38c-1.06-1.27-2.58-0.67-3.31-0.26c-0.09,0.06-0.42,0.26-0.42,0.26l0-0.01
		c-1.5,0.85-3.13,1.33-5.36,1.33c-4.33,0-7.83-3.51-8.38-7.96c-0.05-0.42-0.08-0.85-0.08-1.3c0-0.44,0.03-0.88,0.08-1.3
		c0.55-4.45,4.05-7.96,8.38-7.96c2.23,0,3.86,0.47,5.36,1.33l0-0.01c0,0,0.03,0.02,0.08,0.06c0.13,0.08,0.26,0.15,0.39,0.24
		c0.75,0.4,2.22,0.95,3.25-0.29l2.7-3.26c-2.79-2.37-5.7-3.75-10.17-3.99c-0.45-0.03-0.9-0.05-1.37-0.05c-0.01,0-0.01,0-0.02,0
		c-0.01,0-0.01,0-0.02,0c-0.16,0-0.31,0.02-0.46,0.02c-8.9,0.24-14.99,6.58-14.99,15.14v0.08v0.08c0,8.55,6.09,14.9,14.99,15.14
		c0.16,0,0.31,0.02,0.46,0.02c0.01,0,0.01,0,0.02,0c0.01,0,0.01,0,0.02,0c0.49,0,0.97-0.02,1.44-0.05c3.35-0.19,5.83-1.03,8.03-2.45
		c0.08-0.05,0.24-0.15,0.24-0.16c0.62-0.42,1.23-0.87,1.83-1.38L125.54,70.38z"/>
	<g>
		<path class="st3" d="M331.21,48.72h-1.24V47.9h3.38v0.83h-1.24v3.25h-0.9V48.72z"/>
		<path class="st3" d="M334.04,47.9h0.97l1.07,1.73l1.07-1.73h0.97v4.08h-0.89v-2.66l-1.15,1.74h-0.02l-1.14-1.73v2.65h-0.88V47.9z"
			/>
	</g>
	<path class="st1" d="M68.84,46.02c0,9.82-7.9,17.76-17.64,17.76c-9.75,0-17.65-7.95-17.65-17.76c0-9.81,7.9-17.77,17.65-17.77
		C60.95,28.25,68.84,36.21,68.84,46.02z M90.31,49.85L74.05,78.18c-1.21,2.11-4.17,3.83-6.59,3.83H34.95
		c-2.41,0-5.38-1.73-6.59-3.83L12.12,49.85c-1.21-2.12-1.21-5.55,0-7.66l16.25-28.33c1.21-2.11,4.17-3.84,6.59-3.84h32.51
		c2.42,0,5.38,1.73,6.59,3.84l16.26,28.33C91.5,44.3,91.5,47.73,90.31,49.85z M77.89,46.02c0-14.84-11.95-26.86-26.68-26.86
		c-14.73,0-26.68,12.02-26.68,26.86c0,14.83,11.94,26.85,26.68,26.85C65.93,72.87,77.89,60.85,77.89,46.02z"/>
	<g>
		<path class="st4" d="M167.01,17.04L167.01,17.04h-0.14h-0.01c-0.01,0-0.01,0-0.01,0c-2.48,0-4.18,1.08-5.29,2.54l-0.26,0.35v-7.6
			h-1.84v21.24h1.84v-9.33c0.01-3.22,2.33-5.5,5.35-5.5c3.12,0.02,4.87,2.05,4.88,5.26l0,9.56h1.84v-9.85c0-1.93-0.6-3.6-1.72-4.8
			C170.57,17.76,168.98,17.07,167.01,17.04z"/>
		<polygon class="st4" points="234.98,17.4 229.15,31 229.03,31.31 223.13,17.4 221.01,17.4 228.27,33.69 229.77,33.69 237.04,17.4 
					"/>
		<path class="st4" d="M200.17,29.73c-1.32,1.42-2.97,2.47-5.1,2.47c-3.55,0-6.37-2.97-6.37-6.72v-0.05c0-3.72,2.73-6.65,6.25-6.65
			c2.3,0,3.81,1.17,5.16,2.56l0.07,0.06l0.05,0.06l1.31-1.34L201.43,20c-1.5-1.56-3.41-2.96-6.44-2.96l-0.15,0.02v-0.02
			c-4.57,0.08-8.1,3.97-8.1,8.45v0.07c0.01,4.53,3.58,8.39,8.23,8.39h0.01h0.01c2.97,0,4.94-1.34,6.57-3.2l0.06-0.05l0.05-0.06
			l-1.3-1.15l-0.09,0.12L200.17,29.73L200.17,29.73z"/>
		<path class="st4" d="M203.34,25.48v0.07c0,4.53,3.48,8.39,8.27,8.39c4.82,0,8.33-3.94,8.34-8.46v-0.05
			c-0.01-4.54-3.49-8.39-8.27-8.4C206.86,17.04,203.35,20.96,203.34,25.48z M211.62,18.78c3.57,0,6.36,2.97,6.36,6.7v0.07
			c0,3.65-2.63,6.65-6.3,6.65c-3.58,0-6.38-2.97-6.38-6.72v-0.05C205.3,21.78,207.94,18.78,211.62,18.78z"/>
		<path class="st4" d="M178.93,12.33h-1.84v14.54h0.01L177.1,27c0.07,1.56,0.63,2.97,1.55,4.11c1.28,1.57,3.23,2.58,5.42,2.58h0.63
			v-1.86h-0.47v0l-0.2,0c-2.81,0-5.11-2.3-5.11-5.13v-7.59h5.78V17.4h-5.78V12.33z"/>
		<path class="st4" d="M121.01,33.57h1.82v-7.74c0-3.81,3.09-6.9,6.9-6.9h0.16V17.1h-0.16c-4.81,0-8.72,3.91-8.72,8.73V33.57z"/>
		<rect x="133.4" y="17.4" class="st4" width="1.84" height="16.17"/>
		<path class="st4" d="M109.54,17.04c-2.49,0-4.63,1.04-6.12,2.7L103.16,20v-7.67h-1.96v13.22c0.01,4.53,3.49,8.39,8.27,8.39
			c4.83,0,8.33-3.94,8.34-8.46v-0.05C117.8,20.9,114.32,17.04,109.54,17.04z M115.85,25.56c-0.01,3.65-2.64,6.65-6.31,6.65
			c-3.58,0-6.37-2.97-6.38-6.72v-0.05c0.01-3.66,2.64-6.65,6.32-6.65c3.57,0,6.37,2.97,6.37,6.7V25.56z"/>
		<path class="st4" d="M138.68,25.48v0.07c0.01,4.53,3.49,8.39,8.27,8.39c2.59,0,4.78-1.12,6.27-2.85l0.25-0.29v1.85
			c-0.02,3.8-3.09,6.9-6.9,6.9h-0.16v1.82h0.16c4.82,0,8.72-3.91,8.72-8.72v-7.21c-0.01-4.54-3.49-8.39-8.27-8.4
			C142.2,17.04,138.69,20.96,138.68,25.48z M146.95,18.78c3.59,0,6.38,2.97,6.38,6.7v0.07c-0.01,3.65-2.65,6.65-6.31,6.65
			c-3.58,0-6.37-2.97-6.37-6.72v-0.05C140.65,21.78,143.28,18.78,146.95,18.78z"/>
		<path class="st4" d="M252.67,25.41c-0.04-4.72-2.92-8.37-7.44-8.37c-4.39,0-7.68,3.74-7.68,8.43v0.06c0,5.02,3.68,8.42,7.93,8.42
			h0.01h0.02c3.07,0,5.02-1.28,6.65-3.03l0.06-0.07l0.06-0.05l-1.31-1.13l-0.1,0.1c-1.29,1.38-2.93,2.44-5.32,2.44
			c-2.95,0-5.62-2.1-6.03-5.78l-0.02-0.15h13.12l0.01-0.14c0.03-0.19,0.04-0.3,0.04-0.44V25.41z M239.5,24.59l0.02-0.16
			c0.4-3.26,2.68-5.65,5.6-5.68h0.04h0h0.01c3.41,0,5.19,2.65,5.51,5.68l0.01,0.16H239.5z"/>
	</g>
	<path class="st3" d="M149.72,49.57c0,0-0.6-1.54-2.5-1.54h-1.28h-0.03h-3.12l-0.09,0.21l-12.23,28.73h4.86
		c2.29,0,3.14-1.96,3.15-1.97l1.76-4.32l2.48-6.14l3.21-7.82l3.2,7.82l2.48,6.14l1.75,4.32c0.01,0.01,0.86,1.97,3.15,1.97h4.86
		L149.72,49.57z"/>
	<path class="st3" d="M240.51,49.57c0,0-0.6-1.54-2.5-1.54h-1.28h-0.03h-3.12l-0.09,0.21l-12.23,28.73h4.86
		c2.29,0,3.14-1.96,3.15-1.97l1.76-4.32l2.48-6.14l3.21-7.82l3.2,7.82l2.48,6.14l1.75,4.32c0.01,0.01,0.86,1.97,3.15,1.97h4.86
		L240.51,49.57z"/>
	<path class="st5" d="M194.41,47.59L194.41,47.59h-5.78c-0.71,0-1.3,0.37-1.68,0.9v-0.06l-7.22,11.54l-7.22-11.54v0.06
		c-0.38-0.53-0.98-0.9-1.69-0.9h-5.78v27.26c0,1.17,0.95,2.11,2.11,2.11h4.22V57.88l8.18,12.42h0.17l8.35-12.42l0,16.98
		c0,1.17,0.95,2.11,2.11,2.11h4.23L194.41,47.59L194.41,47.59z"/>
	<path class="st5" d="M211.57,47.58H199.5v29.39h5c1.11,0,2.01-0.9,2.01-2.02v-6.59h4.44c7.26,0,11.95-4.1,11.95-10.52
		C222.9,51.61,218.45,47.58,211.57,47.58z M211.16,62.05h-4.65v-8.07h4.53c3.03,0,4.77,1.46,4.77,4.08
		C215.8,60.44,213.94,62.05,211.16,62.05z"/>
	<path class="st3" d="M260.79,47.9h-4.86v26.96c0,1.15,0.94,2.09,2.09,2.09h4.86V49.99C262.88,48.84,261.94,47.9,260.79,47.9z"/>
	<path class="st3" d="M293.93,60.22h-10.54h-0.02v3.44c0,1.16,0.94,2.1,2.1,2.1h0h2.32l0,0l2.05,0v4.16
		c-1.62,1.17-3.71,1.75-6.04,1.75c-5.16,0-8.83-3.91-8.83-9.24v-0.08c0-4.95,3.71-9.08,8.37-9.08c2.2,0,3.82,0.47,5.3,1.31l0-0.01
		c0,0,0.03,0.02,0.08,0.06c0.13,0.08,0.26,0.15,0.39,0.23c0.74,0.4,2.2,0.94,3.22-0.29l2.67-3.22c-3.04-2.58-6.2-4-11.45-4
		c-8.83,0-15.28,6.79-15.28,15.07v0.08c0,8.62,6.24,14.99,15.32,14.99c5.33,0,9.45-2.08,12.45-4.62V60.22H293.93z"/>
</g>
</svg>
