<?xml version="1.0" encoding="utf-8"?>
<!-- Generator: Adobe Illustrator 24.0.1, SVG Export Plug-In . SVG Version: 6.00 Build 0)  -->
<svg version="1.1" id="Layer_1" xmlns="http://www.w3.org/2000/svg" xmlns:xlink="http://www.w3.org/1999/xlink" x="0px" y="0px"
	 viewBox="0 0 298.7 89.83" style="enable-background:new 0 0 298.7 89.83;" xml:space="preserve">
<style type="text/css">
	.st0{fill:#FFFFFF;}
	.st1{fill:#F29424;}
	.st2{fill:#DDDDDD;}
	.st3{fill:#5F6162;}
	.st4{fill:#A0A0A0;}
</style>
<path class="st3" d="M153.25,46.36h-2.77h-2.09v2.09v14.96l-12.33-16.22v0.06c-0.38-0.52-0.97-0.89-1.67-0.89h-4.86v26.98
	c0,1.15,0.94,2.09,2.09,2.09h4.86V57.77l12.44,16.96l0-0.03c0.38,0.44,0.93,0.73,1.56,0.73h0.99h1.78h2.09v-2.09V48.45v-2.09H153.25
	z"/>
<g>
	<path class="st3" d="M280.08,47.19h-1.24v-0.83h3.38v0.83h-1.24v3.25h-0.9V47.19z"/>
	<path class="st3" d="M282.91,46.36h0.97l1.07,1.73l1.07-1.73h0.97v4.08h-0.89v-2.66l-1.15,1.74h-0.02l-1.14-1.73v2.65h-0.88V46.36z
		"/>
</g>
<path class="st1" d="M69.64,44.48c0,9.82-7.9,17.76-17.64,17.76c-9.75,0-17.65-7.95-17.65-17.76c0-9.81,7.9-17.77,17.65-17.77
	C61.74,26.72,69.64,34.67,69.64,44.48z M91.1,48.31L74.84,76.64c-1.21,2.11-4.17,3.83-6.59,3.83H35.74c-2.41,0-5.38-1.73-6.59-3.83
	L12.91,48.31c-1.21-2.12-1.21-5.55,0-7.66l16.25-28.33c1.21-2.11,4.17-3.84,6.59-3.84h32.51c2.42,0,5.38,1.73,6.59,3.84L91.1,40.64
	C92.3,42.76,92.3,46.19,91.1,48.31z M78.68,44.48c0-14.84-11.95-26.86-26.68-26.86c-14.73,0-26.68,12.02-26.68,26.86
	c0,14.83,11.94,26.85,26.68,26.85C66.73,71.33,78.68,59.31,78.68,44.48z"/>
<g>
	<path class="st4" d="M167.8,15.5L167.8,15.5h-0.14h-0.01c-0.01,0-0.01,0-0.01,0c-2.48,0-4.18,1.08-5.29,2.54l-0.26,0.35v-7.6h-1.84
		v21.24h1.84v-9.33c0.01-3.22,2.33-5.5,5.35-5.5c3.12,0.02,4.87,2.05,4.88,5.26l0,9.56h1.84v-9.85c0-1.93-0.6-3.6-1.72-4.8
		C171.36,16.23,169.78,15.53,167.8,15.5z"/>
	<polygon class="st4" points="235.77,15.87 229.94,29.46 229.82,29.77 223.92,15.87 221.8,15.87 229.07,32.16 230.57,32.16 
		237.83,15.87 	"/>
	<path class="st4" d="M200.97,28.19c-1.32,1.42-2.97,2.47-5.1,2.47c-3.55,0-6.37-2.97-6.37-6.72v-0.05c0-3.72,2.73-6.65,6.25-6.65
		c2.3,0,3.81,1.17,5.16,2.56l0.07,0.06l0.05,0.06l1.31-1.34l-0.11-0.11c-1.5-1.56-3.41-2.96-6.44-2.96l-0.15,0.02V15.5
		c-4.57,0.08-8.1,3.97-8.1,8.45v0.07c0.01,4.53,3.58,8.39,8.23,8.39h0.01h0.01c2.97,0,4.94-1.34,6.57-3.2l0.06-0.05l0.05-0.06
		l-1.3-1.15l-0.09,0.12L200.97,28.19L200.97,28.19z"/>
	<path class="st4" d="M204.13,23.95v0.07c0,4.53,3.48,8.39,8.27,8.39c4.82,0,8.33-3.94,8.34-8.46v-0.05
		c-0.01-4.54-3.49-8.39-8.27-8.4C207.65,15.5,204.14,19.42,204.13,23.95z M212.41,17.24c3.57,0,6.36,2.97,6.36,6.7v0.07
		c0,3.65-2.63,6.65-6.3,6.65c-3.58,0-6.38-2.97-6.38-6.72v-0.05C206.09,20.24,208.73,17.24,212.41,17.24z"/>
	<path class="st4" d="M179.72,10.8h-1.84v14.54h0.01l0.01,0.13c0.07,1.56,0.63,2.97,1.55,4.11c1.28,1.57,3.23,2.58,5.42,2.58h0.63
		V30.3h-0.47v0l-0.2,0c-2.81,0-5.1-2.3-5.11-5.13v-7.59h5.78v-1.71h-5.78V10.8z"/>
	<path class="st4" d="M121.8,32.03h1.82v-7.74c0-3.81,3.09-6.9,6.9-6.9h0.16v-1.82h-0.16c-4.81,0-8.72,3.91-8.72,8.73V32.03z"/>
	<rect x="134.19" y="15.87" class="st4" width="1.84" height="16.17"/>
	<path class="st4" d="M110.33,15.5c-2.49,0-4.63,1.04-6.12,2.7l-0.25,0.27V10.8H102v13.22c0.01,4.53,3.49,8.39,8.27,8.39
		c4.83,0,8.33-3.94,8.34-8.46v-0.05C118.59,19.36,115.12,15.51,110.33,15.5z M116.64,24.02c-0.01,3.65-2.64,6.65-6.31,6.65
		c-3.58,0-6.37-2.97-6.38-6.72v-0.05c0.01-3.66,2.64-6.65,6.32-6.65c3.57,0,6.37,2.97,6.37,6.7V24.02z"/>
	<path class="st4" d="M139.47,23.95v0.07c0.01,4.53,3.49,8.39,8.27,8.39c2.59,0,4.78-1.12,6.27-2.85l0.25-0.29v1.85
		c-0.02,3.8-3.09,6.9-6.9,6.9h-0.16v1.82h0.16c4.82,0,8.72-3.91,8.72-8.72v-7.21c-0.01-4.54-3.49-8.39-8.27-8.4
		C142.99,15.5,139.48,19.42,139.47,23.95z M147.74,17.24c3.59,0,6.38,2.97,6.38,6.7v0.07c-0.01,3.65-2.65,6.65-6.31,6.65
		c-3.58,0-6.37-2.97-6.37-6.72v-0.05C141.44,20.24,144.07,17.24,147.74,17.24z"/>
	<path class="st4" d="M253.46,23.87c-0.04-4.72-2.92-8.37-7.44-8.37c-4.39,0-7.68,3.74-7.68,8.43v0.06c0,5.02,3.68,8.42,7.93,8.42
		h0.01h0.02c3.07,0,5.02-1.28,6.65-3.03l0.06-0.07l0.06-0.05l-1.31-1.13l-0.1,0.1c-1.29,1.38-2.93,2.44-5.32,2.44
		c-2.95,0-5.62-2.1-6.03-5.78l-0.02-0.15h13.12l0.01-0.14c0.03-0.19,0.04-0.3,0.04-0.44V23.87z M240.29,23.05l0.02-0.16
		c0.4-3.26,2.68-5.65,5.6-5.68h0.04h0h0.01c3.41,0,5.19,2.65,5.51,5.68l0.01,0.16H240.29z"/>
</g>
<path class="st3" d="M209.93,48.03c0,0-0.6-1.54-2.5-1.54h-1.28h-0.03H203l-0.09,0.21l-12.23,28.73h4.86c2.29,0,3.14-1.96,3.15-1.97
	l1.76-4.32l2.48-6.14l3.21-7.82l3.2,7.82l2.48,6.14l1.75,4.32c0.01,0.01,0.86,1.97,3.15,1.97h4.86L209.93,48.03z"/>
<path class="st3" d="M185.39,58.69h-10.54h-0.02v3.44c0,1.16,0.94,2.1,2.1,2.1h0h2.32l0,0l2.05,0v4.16
	c-1.62,1.17-3.71,1.75-6.04,1.75c-5.16,0-8.83-3.91-8.83-9.24v-0.08c0-4.95,3.71-9.08,8.37-9.08c2.2,0,3.82,0.47,5.3,1.31l0-0.01
	c0,0,0.03,0.02,0.08,0.06c0.13,0.08,0.26,0.15,0.39,0.23c0.74,0.4,2.2,0.94,3.22-0.29l2.67-3.22c-3.04-2.58-6.2-4-11.45-4
	c-8.83,0-15.28,6.79-15.28,15.07v0.08c0,8.62,6.25,14.99,15.32,14.99c5.33,0,9.45-2.08,12.45-4.62V58.69H185.39z"/>
<path class="st3" d="M247.4,58.69h-10.54h-0.02v3.44c0,1.16,0.94,2.1,2.1,2.1h0h2.32l0,0l2.05,0v4.16
	c-1.62,1.17-3.71,1.75-6.04,1.75c-5.16,0-8.83-3.91-8.83-9.24v-0.08c0-4.95,3.71-9.08,8.37-9.08c2.2,0,3.82,0.47,5.3,1.31l0-0.01
	c0,0,0.03,0.02,0.08,0.06c0.13,0.08,0.26,0.15,0.39,0.23c0.74,0.4,2.2,0.94,3.22-0.29l2.67-3.22c-3.04-2.58-6.2-4-11.45-4
	c-8.83,0-15.28,6.79-15.28,15.07v0.08c0,8.62,6.24,14.99,15.32,14.99c5.33,0,9.45-2.08,12.45-4.62V58.69H247.4z"/>
<path class="st3" d="M122.12,69.15L122.12,69.15H108.9v-5.24h8.27l0,0c1.15,0,2.08-0.93,2.08-2.09v-4.16H108.9v-5.04h12.86
	c0.07,0.01,0.14,0.04,0.2,0.04c0.08,0,0.14-0.03,0.21-0.04c1.06-0.1,1.88-0.97,1.88-2.05v-4.2H102V75.4h22.21v-4.16
	C124.2,70.08,123.27,69.15,122.12,69.15z"/>
<path class="st3" d="M274.6,69.15L274.6,69.15h-13.22v-5.24h8.27l0,0c1.15,0,2.08-0.93,2.08-2.09v-4.16h-10.35v-5.04h12.86
	c0.07,0.01,0.14,0.04,0.2,0.04c0.08,0,0.14-0.03,0.21-0.04c1.06-0.1,1.88-0.97,1.88-2.05v-4.2h-22.06V75.4h22.21v-4.16
	C276.68,70.08,275.75,69.15,274.6,69.15z"/>
</svg>
